<svg xmlns="http://www.w3.org/2000/svg" xmlns:ns1="http://sozi.baierouge.fr" xmlns:svg="http://www.w3.org/2000/svg" xmlns:xlink="http://www.w3.org/1999/xlink" id="svg2" version="1.0" viewBox="0 0 407.41 204.9"><defs id="defs4"><linearGradient id="linearGradient5344" x1="26.5" x2="26.5" y1="51.3" y2="61.618" gradientTransform="matrix(-7.2289 -5.8075 -4.0773 5.0752 718.56 349.71)" gradientUnits="userSpaceOnUse"><stop id="stop2310" offset="0" style="stop-color:#41a9ff"/><stop id="stop2312" offset="1" style="stop-color:#41a9ff;stop-opacity:0"/></linearGradient><linearGradient id="linearGradient5348" x1="16.902" x2="2.705" y1="12.175" y2="14.088" gradientTransform="matrix(4.7783 -5.9478 8.4718 6.806 164.19 356.13)" gradientUnits="userSpaceOnUse"><stop id="stop2189" offset="0" style="stop-color:#fff"/><stop id="stop2191" offset="1" style="stop-color:#fff;stop-opacity:0"/></linearGradient><radialGradient id="radialGradient5350" cx="456.52" cy="28.498" r="168.07" gradientTransform="matrix(3.2348 .32925 -.040219 .39514 -1057.4 94.409)" gradientUnits="userSpaceOnUse"><stop id="stop2328" offset="0" style="stop-color:#fff"/><stop id="stop2330" offset="1" style="stop-color:#fff;stop-opacity:0"/></radialGradient></defs><g id="layer1" transform="translate(-192.04 -233.3)"><g id="g5339" transform="matrix(.99029 .13902 -.13902 .99029 52.356 -52.934)"><path id="path1432" d="m210.34 461.54c-36.24-167.19 156.08-289.93 294.89-178.85l38.226-47.582 60.877 170.72-182.72-19.048 39.421-49.069c-99.272-84.646-231.15-14.447-250.69 123.83z" style="color:#000;stroke:url(#linearGradient5344);stroke-width:7.7696;display:block;fill:url(#linearGradient5344)"/><path id="path2177" d="m210.97 429.6c-7.92-149.87 170.71-241.24 297.3-135.68l33.022-41.105 51.547 143.82-154.33-15.889 33.75-42.011c-99.722-89.177-221.83-32.556-261.29 90.864z" style="opacity:.69886;color:#000;stroke:url(#linearGradient5348);stroke-miterlimit:10;stroke-width:7.7696;display:block;fill:none"/><path id="path9796" d="m542.61 244.98-4.3474 5.4048-30.637 38.157c-63.97-51.07-137.55-55.83-204.77-24.02-42.237 19.986-68.639 61.563-68.639 61.563 138.43-132.94 204.77 26.088 333.85-10.057z" style="opacity:.69886;block-progression:tb;text-indent:0;color:#000;text-transform:none;display:block;fill:url(#radialGradient5350)"/></g></g><metadata/></svg>